<svg width="18" height="19" xmlns="http://www.w3.org/2000/svg"><path clip-rule="evenodd" d="M5.09 1.474c-1.173.538-2.206 1.096-2.868 1.86-.623.718-.963 1.672-.59 3.167C3.4 11.921 6.796 15.51 11.87 17.367c.705.196 1.26.2 1.709.095a2.548 2.548 0 001.194-.67c.724-.69 1.256-1.8 1.743-3.112.046-.277-.129-.533-.34-.597l-.058-.018-4.046-2.007a.193.193 0 00-.036.017.977.977 0 00-.28.276 3.182 3.182 0 00-.475 1.032l-.219.915-.84-.433c-1.883-.972-3.567-2.366-4.474-4.763l-.268-.708.717-.246h.001l.011-.004.05-.019a4.122 4.122 0 00.756-.387c.198-.133.337-.264.41-.377.047-.07.057-.114.055-.15L5.575 1.902l-.014-.054c-.077-.285-.307-.392-.47-.374zm2.314 6.742C8.05 9.53 9.012 10.44 10.17 11.15c.11-.229.242-.459.396-.667.342-.463 1.025-1.11 1.96-.83l.06.019 4.088 2.028c.966.33 1.504 1.375 1.274 2.352l-.01.043-.016.042c-.495 1.342-1.125 2.763-2.125 3.717a4.024 4.024 0 01-1.879 1.04c-.744.174-1.568.138-2.477-.12l-.027-.007-.025-.01C5.84 16.734 2.118 12.776.218 6.93L.21 6.907l-.006-.024c-.49-1.94-.062-3.4.899-4.508.91-1.05 2.25-1.725 3.446-2.27l.057-.026.06-.016C5.696-.212 6.68.448 6.97 1.407l1.916 4.334.015.055c.143.532 0 1.005-.237 1.367-.225.344-.543.605-.82.792-.15.1-.3.187-.44.261z" fill="#ffa356" fill-rule="evenodd"/></svg>